# xmcd
#
# Track frame offsets:
#	150
#	14439
#	36589
#	53674
#	64504
#	77402
#	91795
#	106533
#	125268
#	136629
#	154732
#
# Disc length: 2265 seconds
# Revision: 1
# Processed by: cddbd v1.5.2PL0 Copyright (c) Steve Scherf et al.
# Submitted via: dBpowerAMP V12.0
#
DISCID=7608d70b
DTITLE=CoryBranan,Memphis,TN,thenSouthhaven,MS - The No-Hit Wonder
DYEAR=2014
DGENRE=Country
TTITLE0=You Make Me
TTITLE1=The No-Hit Wonder
TTITLE2=The Only You
TTITLE3=Sour Mash
TTITLE4=C'mon Shadow
TTITLE5=Missing You Fierce
TTITLE6=All I Got and Gone
TTITLE7=All the Rivers in Colorado
TTITLE8=Daddy Was a Skywriter
TTITLE9=The Highway Home
TTITLE10=The Meantime Blues
EXTD=
EXTT0=
EXTT1=
EXTT2=
EXTT3=
EXTT4=
EXTT5=
EXTT6=
EXTT7=
EXTT8=
EXTT9=
EXTT10=
PLAYORDER=
